<?xml version="1.0" encoding="UTF-8" standalone="no"?>
<!-- Created with Inkscape (http://www.inkscape.org/) -->

<svg
   xmlns:dc="http://purl.org/dc/elements/1.1/"
   xmlns:cc="http://creativecommons.org/ns#"
   xmlns:rdf="http://www.w3.org/1999/02/22-rdf-syntax-ns#"
   xmlns:svg="http://www.w3.org/2000/svg"
   xmlns="http://www.w3.org/2000/svg"
   xmlns:sodipodi="http://sodipodi.sourceforge.net/DTD/sodipodi-0.dtd"
   xmlns:inkscape="http://www.inkscape.org/namespaces/inkscape"
   width="500"
   height="400"
   id="svg2"
   version="1.1"
   inkscape:version="0.48.4 r9939"
   sodipodi:docname="img05.svg">
  <defs
     id="defs4" />
  <sodipodi:namedview
     id="base"
     pagecolor="#ffffff"
     bordercolor="#666666"
     borderopacity="1.0"
     inkscape:pageopacity="0.0"
     inkscape:pageshadow="2"
     inkscape:zoom="1.4142136"
     inkscape:cx="232.70411"
     inkscape:cy="206.61292"
     inkscape:document-units="px"
     inkscape:current-layer="layer1"
     showgrid="false"
     showguides="true"
     inkscape:guide-bbox="true"
     inkscape:window-width="1221"
     inkscape:window-height="746"
     inkscape:window-x="-8"
     inkscape:window-y="1072"
     inkscape:window-maximized="1" />
  <metadata
     id="metadata7">
    <rdf:RDF>
      <cc:Work
         rdf:about="">
        <dc:format>image/svg+xml</dc:format>
        <dc:type
           rdf:resource="http://purl.org/dc/dcmitype/StillImage" />
        <dc:title></dc:title>
      </cc:Work>
    </rdf:RDF>
  </metadata>
  <g
     inkscape:label="Layer 1"
     inkscape:groupmode="layer"
     id="layer1"
     transform="translate(0,-652.36218)">
    <path
       style="fill:#a0a0a0;stroke:none"
       d=""
       id="path3795"
       inkscape:connector-curvature="0"
       transform="translate(0,652.36218)" />
    <path
       style="fill:none;stroke:#000000;stroke-width:1px;stroke-linecap:butt;stroke-linejoin:miter;stroke-opacity:1"
       d="M 84,382 123,17"
       id="path4379"
       inkscape:connector-curvature="0"
       transform="translate(0,652.36218)" />
    <path
       style="fill:none;stroke:#000000;stroke-width:1px;stroke-linecap:butt;stroke-linejoin:miter;stroke-opacity:1"
       d="M 162,383 122,15"
       id="path4381"
       inkscape:connector-curvature="0"
       transform="translate(0,652.36218)" />
    <path
       style="fill:none;stroke:#000000;stroke-width:1px;stroke-linecap:butt;stroke-linejoin:miter;stroke-opacity:1"
       d="M 86,382 199,16"
       id="path4383"
       inkscape:connector-curvature="0"
       transform="translate(0,652.36218)" />
    <path
       style="fill:none;stroke:#000000;stroke-width:1px;stroke-linecap:butt;stroke-linejoin:miter;stroke-opacity:1"
       d="M 236,381 124,13"
       id="path4385"
       inkscape:connector-curvature="0"
       transform="translate(0,652.36218)" />
    <path
       style="fill:none;stroke:#000000;stroke-width:1px;stroke-linecap:butt;stroke-linejoin:miter;stroke-opacity:1"
       d="M 313,383 124,17"
       id="path4389"
       inkscape:connector-curvature="0"
       transform="translate(0,652.36218)" />
    <path
       style="fill:none;stroke:#000000;stroke-width:1px;stroke-linecap:butt;stroke-linejoin:miter;stroke-opacity:1"
       d="M 86,386 350,14"
       id="path4391"
       inkscape:connector-curvature="0"
       transform="translate(0,652.36218)" />
    <path
       style="fill:none;stroke:#000000;stroke-width:1px;stroke-linecap:butt;stroke-linejoin:miter;stroke-opacity:1"
       d="M 85,383 273,16"
       id="path4393"
       inkscape:connector-curvature="0"
       transform="translate(0,652.36218)" />
    <path
       style="fill:none;stroke:#000000;stroke-width:1px;stroke-linecap:butt;stroke-linejoin:miter;stroke-opacity:1"
       d="M 383,377 126,15"
       id="path4395"
       inkscape:connector-curvature="0"
       transform="translate(0,652.36218)" />
    <path
       style="fill:none;stroke:#000000;stroke-width:1px;stroke-linecap:butt;stroke-linejoin:miter;stroke-opacity:1"
       d="M 201,16 385,379"
       id="path4397"
       inkscape:connector-curvature="0"
       transform="translate(0,652.36218)" />
    <path
       style="fill:none;stroke:#000000;stroke-width:1px;stroke-linecap:butt;stroke-linejoin:miter;stroke-opacity:1"
       d="M 273,14 388,384"
       id="path4399"
       inkscape:connector-curvature="0"
       transform="translate(0,652.36218)" />
    <path
       style="fill:none;stroke:#000000;stroke-width:1px;stroke-linecap:butt;stroke-linejoin:miter;stroke-opacity:1"
       d="m 349,16 39,366"
       id="path4401"
       inkscape:connector-curvature="0"
       transform="translate(0,652.36218)" />
    <path
       style="fill:none;stroke:#000000;stroke-width:1px;stroke-linecap:butt;stroke-linejoin:miter;stroke-opacity:1"
       d="m 273,13 40,374"
       id="path4403"
       inkscape:connector-curvature="0"
       transform="translate(0,652.36218)" />
    <path
       style="fill:none;stroke:#000000;stroke-width:1px;stroke-linecap:butt;stroke-linejoin:miter;stroke-opacity:1"
       d="M 200,15 310,382"
       id="path4405"
       inkscape:connector-curvature="0"
       transform="translate(0,652.36218)" />
    <path
       style="fill:none;stroke:#000000;stroke-width:1px;stroke-linecap:butt;stroke-linejoin:miter;stroke-opacity:1"
       d="M 349,12 310,383"
       id="path4407"
       inkscape:connector-curvature="0"
       transform="translate(0,652.36218)" />
    <path
       style="fill:none;stroke:#000000;stroke-width:1px;stroke-linecap:butt;stroke-linejoin:miter;stroke-opacity:1"
       d="m 199,14 37,368"
       id="path4409"
       inkscape:connector-curvature="0"
       transform="translate(0,652.36218)" />
    <path
       style="fill:none;stroke:#000000;stroke-width:1px;stroke-linecap:butt;stroke-linejoin:miter;stroke-opacity:1"
       d="M 162,382 351,12"
       id="path4411"
       inkscape:connector-curvature="0"
       transform="translate(0,652.36218)" />
    <path
       style="fill:none;stroke:#000000;stroke-width:1px;stroke-linecap:butt;stroke-linejoin:miter;stroke-opacity:1"
       d="M 274,665.36218 163,1035.3622"
       id="path4413"
       inkscape:connector-curvature="0" />
    <path
       style="fill:none;stroke:#000000;stroke-width:1px;stroke-linecap:butt;stroke-linejoin:miter;stroke-opacity:1"
       d="M 234,383 349,16"
       id="path4415"
       inkscape:connector-curvature="0"
       transform="translate(0,652.36218)" />
    <path
       style="fill:none;stroke:#000000;stroke-width:1px;stroke-linecap:butt;stroke-linejoin:miter;stroke-opacity:1"
       d="M 274,14 235,385"
       id="path4417"
       inkscape:connector-curvature="0"
       transform="translate(0,652.36218)" />
    <path
       style="fill:none;stroke:#000000;stroke-width:1px;stroke-linecap:butt;stroke-linejoin:miter;stroke-opacity:1"
       d="M 199,15 162,383"
       id="path4419"
       inkscape:connector-curvature="0"
       transform="translate(0,652.36218)" />
    <path
       sodipodi:type="arc"
       style="fill:#333333;fill-opacity:1;stroke:#333333;stroke-width:3;stroke-miterlimit:4;stroke-opacity:1;stroke-dasharray:none;stroke-dashoffset:0"
       id="path4361"
       sodipodi:cx="121.5"
       sodipodi:cy="14"
       sodipodi:rx="4.5"
       sodipodi:ry="4"
       d="m 126,14 a 4.5,4 0 1 1 -9,0 4.5,4 0 1 1 9,0 z"
       transform="translate(-37,1021.3622)" />
    <path
       transform="translate(41,1021.3622)"
       d="m 126,14 a 4.5,4 0 1 1 -9,0 4.5,4 0 1 1 9,0 z"
       sodipodi:ry="4"
       sodipodi:rx="4.5"
       sodipodi:cy="14"
       sodipodi:cx="121.5"
       id="path4371"
       style="fill:#333333;fill-opacity:1;stroke:#333333;stroke-width:3;stroke-miterlimit:4;stroke-opacity:1;stroke-dasharray:none;stroke-dashoffset:0"
       sodipodi:type="arc" />
    <path
       sodipodi:type="arc"
       style="fill:#333333;fill-opacity:1;stroke:#333333;stroke-width:3;stroke-miterlimit:4;stroke-opacity:1;stroke-dasharray:none;stroke-dashoffset:0"
       id="path4373"
       sodipodi:cx="121.5"
       sodipodi:cy="14"
       sodipodi:rx="4.5"
       sodipodi:ry="4"
       d="m 126,14 a 4.5,4 0 1 1 -9,0 4.5,4 0 1 1 9,0 z"
       transform="translate(115,1021.3622)" />
    <path
       transform="translate(189,1021.3622)"
       d="m 126,14 a 4.5,4 0 1 1 -9,0 4.5,4 0 1 1 9,0 z"
       sodipodi:ry="4"
       sodipodi:rx="4.5"
       sodipodi:cy="14"
       sodipodi:cx="121.5"
       id="path4375"
       style="fill:#333333;fill-opacity:1;stroke:#333333;stroke-width:3;stroke-miterlimit:4;stroke-opacity:1;stroke-dasharray:none;stroke-dashoffset:0"
       sodipodi:type="arc" />
    <path
       sodipodi:type="arc"
       style="fill:#333333;fill-opacity:1;stroke:#333333;stroke-width:3;stroke-miterlimit:4;stroke-opacity:1;stroke-dasharray:none;stroke-dashoffset:0"
       id="path4377"
       sodipodi:cx="121.5"
       sodipodi:cy="14"
       sodipodi:rx="4.5"
       sodipodi:ry="4"
       d="m 126,14 a 4.5,4 0 1 1 -9,0 4.5,4 0 1 1 9,0 z"
       transform="translate(265,1021.3622)" />
    <path
       transform="translate(78,652.36218)"
       d="m 126,14 a 4.5,4 0 1 1 -9,0 4.5,4 0 1 1 9,0 z"
       sodipodi:ry="4"
       sodipodi:rx="4.5"
       sodipodi:cy="14"
       sodipodi:cx="121.5"
       id="path4363"
       style="fill:#000000;fill-opacity:1;stroke:#000000;stroke-width:3;stroke-miterlimit:4;stroke-opacity:1;stroke-dasharray:none;stroke-dashoffset:0"
       sodipodi:type="arc" />
    <path
       sodipodi:type="arc"
       style="fill:#000000;fill-opacity:1;stroke:#000000;stroke-width:3;stroke-miterlimit:4;stroke-opacity:1;stroke-dasharray:none;stroke-dashoffset:0"
       id="path4365"
       sodipodi:cx="121.5"
       sodipodi:cy="14"
       sodipodi:rx="4.5"
       sodipodi:ry="4"
       d="m 126,14 a 4.5,4 0 1 1 -9,0 4.5,4 0 1 1 9,0 z"
       transform="translate(152,652.36218)" />
    <path
       transform="translate(228,652.36218)"
       d="m 126,14 a 4.5,4 0 1 1 -9,0 4.5,4 0 1 1 9,0 z"
       sodipodi:ry="4"
       sodipodi:rx="4.5"
       sodipodi:cy="14"
       sodipodi:cx="121.5"
       id="path4367"
       style="fill:#000000;fill-opacity:1;stroke:#000000;stroke-width:3;stroke-miterlimit:4;stroke-opacity:1;stroke-dasharray:none;stroke-dashoffset:0"
       sodipodi:type="arc" />
    <path
       sodipodi:type="arc"
       style="fill:#000000;fill-opacity:1;stroke:#000000;stroke-width:3;stroke-miterlimit:4;stroke-opacity:1;stroke-dasharray:none;stroke-dashoffset:0"
       id="path4369"
       sodipodi:cx="121.5"
       sodipodi:cy="14"
       sodipodi:rx="4.5"
       sodipodi:ry="4"
       d="m 126,14 a 4.5,4 0 1 1 -9,0 4.5,4 0 1 1 9,0 z"
       transform="translate(2,652.36218)" />
  </g>
</svg>
