<?xml version="1.0" encoding="UTF-8" standalone="no"?>
<!-- Created with Inkscape (http://www.inkscape.org/) -->

<svg
   xmlns:dc="http://purl.org/dc/elements/1.1/"
   xmlns:cc="http://creativecommons.org/ns#"
   xmlns:rdf="http://www.w3.org/1999/02/22-rdf-syntax-ns#"
   xmlns:svg="http://www.w3.org/2000/svg"
   xmlns="http://www.w3.org/2000/svg"
   xmlns:sodipodi="http://sodipodi.sourceforge.net/DTD/sodipodi-0.dtd"
   xmlns:inkscape="http://www.inkscape.org/namespaces/inkscape"
   width="500"
   height="400"
   id="svg2"
   version="1.1"
   inkscape:version="0.48.4 r9939"
   sodipodi:docname="img28.svg">
  <defs
     id="defs4">
    <inkscape:path-effect
       effect="spiro"
       id="path-effect4150"
       is_visible="true" />
    <marker
       inkscape:stockid="Arrow2Lend"
       orient="auto"
       refY="0.0"
       refX="0.0"
       id="Arrow2Lend"
       style="overflow:visible;">
      <path
         id="path5362"
         style="fill-rule:evenodd;stroke-width:0.62500000;stroke-linejoin:round;"
         d="M 8.7185878,4.0337352 L -2.2072895,0.016013256 L 8.7185884,-4.0017078 C 6.9730900,-1.6296469 6.9831476,1.6157441 8.7185878,4.0337352 z "
         transform="scale(1.1) rotate(180) translate(1,0)" />
    </marker>
  </defs>
  <sodipodi:namedview
     id="base"
     pagecolor="#ffffff"
     bordercolor="#666666"
     borderopacity="1.0"
     inkscape:pageopacity="0.0"
     inkscape:pageshadow="2"
     inkscape:zoom="0.79018799"
     inkscape:cx="140.91884"
     inkscape:cy="269.46727"
     inkscape:document-units="px"
     inkscape:current-layer="layer1"
     showgrid="false"
     showguides="true"
     inkscape:guide-bbox="true"
     inkscape:window-width="1221"
     inkscape:window-height="746"
     inkscape:window-x="-8"
     inkscape:window-y="-8"
     inkscape:window-maximized="1" />
  <metadata
     id="metadata7">
    <rdf:RDF>
      <cc:Work
         rdf:about="">
        <dc:format>image/svg+xml</dc:format>
        <dc:type
           rdf:resource="http://purl.org/dc/dcmitype/StillImage" />
        <dc:title></dc:title>
      </cc:Work>
    </rdf:RDF>
  </metadata>
  <g
     inkscape:label="Layer 1"
     inkscape:groupmode="layer"
     id="layer1"
     transform="translate(0,-652.36218)">
    <path
       style="fill:#a0a0a0;stroke:none"
       d=""
       id="path3795"
       inkscape:connector-curvature="0"
       transform="translate(0,652.36218)" />
    <path
       sodipodi:type="arc"
       style="fill:none;stroke:#000000;stroke-width:2;stroke-miterlimit:4;stroke-opacity:1;stroke-dasharray:none;stroke-dashoffset:0"
       id="path4134"
       sodipodi:cx="117.69351"
       sodipodi:cy="196.25102"
       sodipodi:rx="67.072647"
       sodipodi:ry="67.072647"
       d="m 184.76616,196.25102 a 67.072647,67.072647 0 1 1 -134.145295,0 67.072647,67.072647 0 1 1 134.145295,0 z"
       transform="matrix(1.3275345,0,0,1.3275345,-30.252546,587.21437)" />
    <path
       sodipodi:type="arc"
       style="fill:#000000;stroke:#000000;stroke-width:2;stroke-miterlimit:4;stroke-opacity:1;stroke-dasharray:none;stroke-dashoffset:0"
       id="path4138"
       sodipodi:cx="102.50726"
       sodipodi:cy="122.85076"
       sodipodi:rx="6.3276081"
       sodipodi:ry="6.3276081"
       d="m 108.83487,122.85076 a 6.3276081,6.3276081 0 1 1 -12.655215,0 6.3276081,6.3276081 0 1 1 12.655215,0 z"
       transform="matrix(1.3275345,0,0,1.3275345,-9.011994,595.17958)" />
    <path
       transform="matrix(1.3275345,0,0,1.3275345,-9.011994,775.72427)"
       d="m 108.83487,122.85076 a 6.3276081,6.3276081 0 1 1 -12.655215,0 6.3276081,6.3276081 0 1 1 12.655215,0 z"
       sodipodi:ry="6.3276081"
       sodipodi:rx="6.3276081"
       sodipodi:cy="122.85076"
       sodipodi:cx="102.50726"
       id="path4140"
       style="fill:#000000;stroke:#000000;stroke-width:2;stroke-miterlimit:4;stroke-opacity:1;stroke-dasharray:none;stroke-dashoffset:0"
       sodipodi:type="arc" />
    <path
       style="fill:none;stroke:#000000;stroke-width:2.65506911;stroke-miterlimit:4;stroke-opacity:1;stroke-dasharray:none;stroke-dashoffset:0"
       d="m 127.06992,939.71076 c 0,0 -58.800826,-82.32116 -1.68002,-179.76254"
       id="path4152"
       inkscape:connector-curvature="0" />
    <path
       style="fill:none;stroke:#000000;stroke-width:2.65506911;stroke-miterlimit:4;stroke-opacity:1;stroke-dasharray:none;stroke-dashoffset:0"
       d="m 127.06992,936.3507 c 0,0 72.24102,-84.00118 0,-178.0825"
       id="path4154"
       inkscape:connector-curvature="0" />
    <path
       sodipodi:type="arc"
       style="fill:#000000;stroke:#000000;stroke-width:2;stroke-miterlimit:4;stroke-opacity:1;stroke-dasharray:none;stroke-dashoffset:0"
       id="path4156"
       sodipodi:cx="102.50726"
       sodipodi:cy="122.85076"
       sodipodi:rx="6.3276081"
       sodipodi:ry="6.3276081"
       d="m 108.83487,122.85076 a 6.3276081,6.3276081 0 1 1 -12.655215,0 6.3276081,6.3276081 0 1 1 12.655215,0 z"
       transform="matrix(1.2766891,0,0,1.2766891,161.66483,784.34325)" />
    <path
       transform="matrix(1.2766891,0,0,1.2766891,345.50806,784.34325)"
       d="m 108.83487,122.85076 a 6.3276081,6.3276081 0 1 1 -12.655215,0 6.3276081,6.3276081 0 1 1 12.655215,0 z"
       sodipodi:ry="6.3276081"
       sodipodi:rx="6.3276081"
       sodipodi:cy="122.85076"
       sodipodi:cx="102.50726"
       id="path4158"
       style="fill:#000000;stroke:#000000;stroke-width:2;stroke-miterlimit:4;stroke-opacity:1;stroke-dasharray:none;stroke-dashoffset:0"
       sodipodi:type="arc" />
    <path
       sodipodi:type="arc"
       style="fill:#000000;stroke:#000000;stroke-width:2;stroke-miterlimit:4;stroke-opacity:1;stroke-dasharray:none;stroke-dashoffset:0"
       id="path4160"
       sodipodi:cx="102.50726"
       sodipodi:cy="122.85076"
       sodipodi:rx="6.3276081"
       sodipodi:ry="6.3276081"
       d="m 108.83487,122.85076 a 6.3276081,6.3276081 0 1 1 -12.655215,0 6.3276081,6.3276081 0 1 1 12.655215,0 z"
       transform="matrix(1.2766891,0,0,1.2766891,253.58644,784.34325)" />
    <path
       transform="matrix(1.2766891,0,0,1.2766891,161.66483,603.0534)"
       d="m 108.83487,122.85076 a 6.3276081,6.3276081 0 1 1 -12.655215,0 6.3276081,6.3276081 0 1 1 12.655215,0 z"
       sodipodi:ry="6.3276081"
       sodipodi:rx="6.3276081"
       sodipodi:cy="122.85076"
       sodipodi:cx="102.50726"
       id="path4162"
       style="fill:#000000;stroke:#000000;stroke-width:2;stroke-miterlimit:4;stroke-opacity:1;stroke-dasharray:none;stroke-dashoffset:0"
       sodipodi:type="arc" />
    <path
       sodipodi:type="arc"
       style="fill:#000000;stroke:#000000;stroke-width:2;stroke-miterlimit:4;stroke-opacity:1;stroke-dasharray:none;stroke-dashoffset:0"
       id="path4164"
       sodipodi:cx="102.50726"
       sodipodi:cy="122.85076"
       sodipodi:rx="6.3276081"
       sodipodi:ry="6.3276081"
       d="m 108.83487,122.85076 a 6.3276081,6.3276081 0 1 1 -12.655215,0 6.3276081,6.3276081 0 1 1 12.655215,0 z"
       transform="matrix(1.2766891,0,0,1.2766891,345.50806,603.0534)" />
    <path
       transform="matrix(1.2766891,0,0,1.2766891,253.58644,603.0534)"
       d="m 108.83487,122.85076 a 6.3276081,6.3276081 0 1 1 -12.655215,0 6.3276081,6.3276081 0 1 1 12.655215,0 z"
       sodipodi:ry="6.3276081"
       sodipodi:rx="6.3276081"
       sodipodi:cy="122.85076"
       sodipodi:cx="102.50726"
       id="path4166"
       style="fill:#000000;stroke:#000000;stroke-width:2;stroke-miterlimit:4;stroke-opacity:1;stroke-dasharray:none;stroke-dashoffset:0"
       sodipodi:type="arc" />
    <path
       style="fill:none;stroke:#000000;stroke-width:2.55337811;stroke-miterlimit:4;stroke-opacity:1;stroke-dasharray:none;stroke-dashoffset:0"
       d="m 290.91563,756.92399 0,184.18725 93.70931,0 92.09362,0 0,-179.34021"
       id="path4168"
       inkscape:connector-curvature="0" />
    <path
       style="fill:none;stroke:#000000;stroke-width:2.55337811;stroke-miterlimit:4;stroke-opacity:1;stroke-dasharray:none;stroke-dashoffset:0"
       d="m 475.10288,760.15535 -95.32498,0 -88.86227,0"
       id="path4170"
       inkscape:connector-curvature="0" />
    <path
       style="fill:none;stroke:#000000;stroke-width:2.55337811;stroke-miterlimit:4;stroke-opacity:1;stroke-dasharray:none;stroke-dashoffset:0"
       d="M 290.91563,939.49557 383.00926,760.15535"
       id="path4172"
       inkscape:connector-curvature="0" />
    <path
       style="fill:none;stroke:#000000;stroke-width:2;stroke-miterlimit:4;stroke-opacity:1;stroke-dasharray:none;stroke-dashoffset:0"
       d="M 475.27074,939.35823 387.94975,763.45073"
       id="path4176"
       inkscape:connector-curvature="0" />
    <text
       xml:space="preserve"
       style="font-size:18px;font-style:normal;font-weight:normal;line-height:125%;letter-spacing:0px;word-spacing:0px;fill:#000000;fill-opacity:1;stroke:none;font-family:Sans"
       x="30.248346"
       y="770.15088"
       id="text4178"
       sodipodi:linespacing="125%"><tspan
         sodipodi:role="line"
         x="30.248346"
         y="770.15088"
         id="tspan4190"
         style="font-size:22px">I</tspan></text>
    <text
       sodipodi:linespacing="125%"
       id="text4194"
       y="770.15088"
       x="254.24834"
       style="font-size:18px;font-style:normal;font-weight:normal;line-height:125%;letter-spacing:0px;word-spacing:0px;fill:#000000;fill-opacity:1;stroke:none;font-family:Sans"
       xml:space="preserve"><tspan
         id="tspan4196"
         y="770.15088"
         x="254.24834"
         sodipodi:role="line"
         style="font-size:22px">II</tspan></text>
  </g>
</svg>
