<?xml version="1.0" encoding="UTF-8" standalone="no"?>
<!-- Created with Inkscape (http://www.inkscape.org/) -->

<svg
   xmlns:dc="http://purl.org/dc/elements/1.1/"
   xmlns:cc="http://creativecommons.org/ns#"
   xmlns:rdf="http://www.w3.org/1999/02/22-rdf-syntax-ns#"
   xmlns:svg="http://www.w3.org/2000/svg"
   xmlns="http://www.w3.org/2000/svg"
   xmlns:sodipodi="http://sodipodi.sourceforge.net/DTD/sodipodi-0.dtd"
   xmlns:inkscape="http://www.inkscape.org/namespaces/inkscape"
   width="500"
   height="400"
   id="svg2"
   version="1.1"
   inkscape:version="0.48.4 r9939"
   sodipodi:docname="img12.svg">
  <defs
     id="defs4">
    <marker
       inkscape:stockid="Arrow2Lend"
       orient="auto"
       refY="0.0"
       refX="0.0"
       id="Arrow2Lend"
       style="overflow:visible;">
      <path
         id="path5362"
         style="fill-rule:evenodd;stroke-width:0.62500000;stroke-linejoin:round;"
         d="M 8.7185878,4.0337352 L -2.2072895,0.016013256 L 8.7185884,-4.0017078 C 6.9730900,-1.6296469 6.9831476,1.6157441 8.7185878,4.0337352 z "
         transform="scale(1.1) rotate(180) translate(1,0)" />
    </marker>
  </defs>
  <sodipodi:namedview
     id="base"
     pagecolor="#ffffff"
     bordercolor="#666666"
     borderopacity="1.0"
     inkscape:pageopacity="0.0"
     inkscape:pageshadow="2"
     inkscape:zoom="1"
     inkscape:cx="222.33092"
     inkscape:cy="192.59375"
     inkscape:document-units="px"
     inkscape:current-layer="layer1"
     showgrid="false"
     showguides="true"
     inkscape:guide-bbox="true"
     inkscape:window-width="1221"
     inkscape:window-height="746"
     inkscape:window-x="-8"
     inkscape:window-y="1072"
     inkscape:window-maximized="1" />
  <metadata
     id="metadata7">
    <rdf:RDF>
      <cc:Work
         rdf:about="">
        <dc:format>image/svg+xml</dc:format>
        <dc:type
           rdf:resource="http://purl.org/dc/dcmitype/StillImage" />
        <dc:title></dc:title>
      </cc:Work>
    </rdf:RDF>
  </metadata>
  <g
     inkscape:label="Layer 1"
     inkscape:groupmode="layer"
     id="layer1"
     transform="translate(0,-652.36218)">
    <path
       sodipodi:type="arc"
       style="fill:#ffffff;fill-opacity:1;stroke:#000000;stroke-width:2;stroke-miterlimit:4;stroke-opacity:1;stroke-dasharray:none;stroke-dashoffset:0"
       id="path5221"
       sodipodi:cx="66"
       sodipodi:cy="63"
       sodipodi:rx="27"
       sodipodi:ry="27"
       d="m 93,63 a 27,27 0 1 1 -54,0 27,27 0 1 1 54,0 z"
       transform="translate(44,666.36218)" />
    <path
       transform="translate(192,666.36218)"
       d="m 93,63 a 27,27 0 1 1 -54,0 27,27 0 1 1 54,0 z"
       sodipodi:ry="27"
       sodipodi:rx="27"
       sodipodi:cy="63"
       sodipodi:cx="66"
       id="path5229"
       style="fill:#ffffff;fill-opacity:1;stroke:#000000;stroke-width:2;stroke-miterlimit:4;stroke-opacity:1;stroke-dasharray:none;stroke-dashoffset:0"
       sodipodi:type="arc" />
    <path
       sodipodi:type="arc"
       style="fill:#ffffff;fill-opacity:1;stroke:#000000;stroke-width:2;stroke-miterlimit:4;stroke-opacity:1;stroke-dasharray:none;stroke-dashoffset:0"
       id="path5237"
       sodipodi:cx="66"
       sodipodi:cy="63"
       sodipodi:rx="27"
       sodipodi:ry="27"
       d="m 93,63 a 27,27 0 1 1 -54,0 27,27 0 1 1 54,0 z"
       transform="translate(328,666.36218)" />
    <path
       transform="translate(44,776.36218)"
       d="m 93,63 a 27,27 0 1 1 -54,0 27,27 0 1 1 54,0 z"
       sodipodi:ry="27"
       sodipodi:rx="27"
       sodipodi:cy="63"
       sodipodi:cx="66"
       id="path5245"
       style="fill:#ffffff;fill-opacity:1;stroke:#000000;stroke-width:2;stroke-miterlimit:4;stroke-opacity:1;stroke-dasharray:none;stroke-dashoffset:0"
       sodipodi:type="arc" />
    <path
       sodipodi:type="arc"
       style="fill:#ffffff;fill-opacity:1;stroke:#000000;stroke-width:2;stroke-miterlimit:4;stroke-opacity:1;stroke-dasharray:none;stroke-dashoffset:0"
       id="path5253"
       sodipodi:cx="66"
       sodipodi:cy="63"
       sodipodi:rx="27"
       sodipodi:ry="27"
       d="m 93,63 a 27,27 0 1 1 -54,0 27,27 0 1 1 54,0 z"
       transform="translate(192,776.36218)" />
    <path
       sodipodi:type="arc"
       style="fill:#ffffff;fill-opacity:1;stroke:#000000;stroke-width:2;stroke-miterlimit:4;stroke-opacity:1;stroke-dasharray:none;stroke-dashoffset:0"
       id="path5269"
       sodipodi:cx="66"
       sodipodi:cy="63"
       sodipodi:rx="27"
       sodipodi:ry="27"
       d="m 93,63 a 27,27 0 1 1 -54,0 27,27 0 1 1 54,0 z"
       transform="translate(44,894.36218)" />
    <path
       transform="translate(192,894.36218)"
       d="m 93,63 a 27,27 0 1 1 -54,0 27,27 0 1 1 54,0 z"
       sodipodi:ry="27"
       sodipodi:rx="27"
       sodipodi:cy="63"
       sodipodi:cx="66"
       id="path5277"
       style="fill:#ffffff;fill-opacity:1;stroke:#000000;stroke-width:2;stroke-miterlimit:4;stroke-opacity:1;stroke-dasharray:none;stroke-dashoffset:0"
       sodipodi:type="arc" />
    <path
       sodipodi:type="arc"
       style="fill:#ffffff;fill-opacity:1;stroke:#000000;stroke-width:2;stroke-miterlimit:4;stroke-opacity:1;stroke-dasharray:none;stroke-dashoffset:0"
       id="path5285"
       sodipodi:cx="66"
       sodipodi:cy="63"
       sodipodi:rx="27"
       sodipodi:ry="27"
       d="m 93,63 a 27,27 0 1 1 -54,0 27,27 0 1 1 54,0 z"
       transform="translate(328,894.36218)" />
    <path
       style="fill:#ffffff;fill-opacity:1;stroke:#000000;stroke-width:2;stroke-miterlimit:4;stroke-opacity:1;stroke-dasharray:none;stroke-dashoffset:0;marker-end:url(#Arrow2Lend)"
       d="m 108,739.36218 0,68"
       id="path5293"
       inkscape:connector-curvature="0" />
    <path
       style="fill:#ffffff;fill-opacity:1;stroke:#000000;stroke-width:2;stroke-miterlimit:4;stroke-opacity:1;stroke-dasharray:none;stroke-dashoffset:0;marker-end:url(#Arrow2Lend)"
       d="m 107,859.36218 0,67"
       id="path5295"
       inkscape:connector-curvature="0" />
    <path
       style="fill:#ffffff;fill-opacity:1;stroke:#000000;stroke-width:2;stroke-miterlimit:4;stroke-opacity:1;stroke-dasharray:none;stroke-dashoffset:0;marker-end:url(#Arrow2Lend)"
       d="m 256,749.36218 0,60"
       id="path5297"
       inkscape:connector-curvature="0" />
    <path
       style="fill:#ffffff;fill-opacity:1;stroke:#000000;stroke-width:2;stroke-miterlimit:4;stroke-opacity:1;stroke-dasharray:none;stroke-dashoffset:0;marker-end:url(#Arrow2Lend)"
       d="m 257,860.36218 0,67"
       id="path5299"
       inkscape:connector-curvature="0" />
    <path
       style="fill:#ffffff;fill-opacity:1;stroke:#000000;stroke-width:2;stroke-miterlimit:4;stroke-opacity:1;stroke-dasharray:none;stroke-dashoffset:0;marker-end:url(#Arrow2Lend)"
       d="m 392,753.36218 0,173"
       id="path5301"
       inkscape:connector-curvature="0" />
    <path
       style="fill:#ffffff;fill-opacity:1;stroke:#000000;stroke-width:2;stroke-miterlimit:4;stroke-opacity:1;stroke-dasharray:none;stroke-dashoffset:0;marker-end:url(#Arrow2Lend)"
       d="m 238,736.36218 -104,84"
       id="path5303"
       inkscape:connector-curvature="0" />
    <path
       style="fill:#ffffff;fill-opacity:1;stroke:#000000;stroke-width:2;stroke-miterlimit:4;stroke-opacity:1;stroke-dasharray:none;stroke-dashoffset:0;marker-end:url(#Arrow2Lend)"
       d="m 131,848.36218 238,93"
       id="path5305"
       inkscape:connector-curvature="0" />
    <path
       style="fill:#ffffff;fill-opacity:1;stroke:#000000;stroke-width:2;stroke-miterlimit:4;stroke-opacity:1;stroke-dasharray:none;stroke-dashoffset:0;marker-end:url(#Arrow2Lend)"
       d="m 127,858.36218 103,83"
       id="path5307"
       inkscape:connector-curvature="0" />
    <path
       style="fill:#ffffff;fill-opacity:1;stroke:#000000;stroke-width:2;stroke-miterlimit:4;stroke-opacity:1;stroke-dasharray:none;stroke-dashoffset:0;marker-end:url(#Arrow2Lend)"
       d="m 377,743.36218 -95,78"
       id="path5309"
       inkscape:connector-curvature="0" />
    <path
       style="fill:#a0a0a0;stroke:none"
       d=""
       id="path3795"
       inkscape:connector-curvature="0"
       transform="translate(0,652.36218)" />
    <g
       id="g5311"
       transform="translate(44,14)">
      <path
         sodipodi:type="arc"
         style="fill:#ffffff;fill-opacity:1;stroke:#000000;stroke-width:2;stroke-miterlimit:4;stroke-opacity:1;stroke-dasharray:none;stroke-dashoffset:0"
         id="path5223"
         sodipodi:cx="66"
         sodipodi:cy="63"
         sodipodi:rx="27"
         sodipodi:ry="27"
         d="M 93,63 C 93,77.911688 80.911688,90 66,90 51.088312,90 39,77.911688 39,63 39,48.088312 51.088312,36 66,36 80.911688,36 93,48.088312 93,63 z"
         transform="translate(0,652.36218)" />
      <text
         sodipodi:linespacing="125%"
         id="text5225"
         y="725.36218"
         x="58"
         style="font-size:28px;font-style:normal;font-weight:normal;line-height:125%;letter-spacing:0px;word-spacing:0px;fill:#000000;fill-opacity:1;stroke:none;font-family:Sans"
         xml:space="preserve"><tspan
           y="725.36218"
           x="58"
           id="tspan5227"
           sodipodi:role="line">5</tspan></text>
      <path
         transform="translate(148,652.36218)"
         d="M 93,63 C 93,77.911688 80.911688,90 66,90 51.088312,90 39,77.911688 39,63 39,48.088312 51.088312,36 66,36 80.911688,36 93,48.088312 93,63 z"
         sodipodi:ry="27"
         sodipodi:rx="27"
         sodipodi:cy="63"
         sodipodi:cx="66"
         id="path5231"
         style="fill:#ffffff;fill-opacity:1;stroke:#000000;stroke-width:2;stroke-miterlimit:4;stroke-opacity:1;stroke-dasharray:none;stroke-dashoffset:0"
         sodipodi:type="arc" />
      <text
         xml:space="preserve"
         style="font-size:28px;font-style:normal;font-weight:normal;line-height:125%;letter-spacing:0px;word-spacing:0px;fill:#000000;fill-opacity:1;stroke:none;font-family:Sans"
         x="206"
         y="725.36218"
         id="text5233"
         sodipodi:linespacing="125%"><tspan
           sodipodi:role="line"
           id="tspan5235"
           x="206"
           y="725.36218">7</tspan></text>
      <path
         sodipodi:type="arc"
         style="fill:#ffffff;fill-opacity:1;stroke:#000000;stroke-width:2;stroke-miterlimit:4;stroke-opacity:1;stroke-dasharray:none;stroke-dashoffset:0"
         id="path5239"
         sodipodi:cx="66"
         sodipodi:cy="63"
         sodipodi:rx="27"
         sodipodi:ry="27"
         d="M 93,63 C 93,77.911688 80.911688,90 66,90 51.088312,90 39,77.911688 39,63 39,48.088312 51.088312,36 66,36 80.911688,36 93,48.088312 93,63 z"
         transform="translate(284,652.36218)" />
      <text
         sodipodi:linespacing="125%"
         id="text5241"
         y="725.36218"
         x="342"
         style="font-size:28px;font-style:normal;font-weight:normal;line-height:125%;letter-spacing:0px;word-spacing:0px;fill:#000000;fill-opacity:1;stroke:none;font-family:Sans"
         xml:space="preserve"><tspan
           y="725.36218"
           x="342"
           id="tspan5243"
           sodipodi:role="line">3</tspan></text>
      <path
         transform="translate(0,762.36218)"
         d="M 93,63 C 93,77.911688 80.911688,90 66,90 51.088312,90 39,77.911688 39,63 39,48.088312 51.088312,36 66,36 80.911688,36 93,48.088312 93,63 z"
         sodipodi:ry="27"
         sodipodi:rx="27"
         sodipodi:cy="63"
         sodipodi:cx="66"
         id="path5247"
         style="fill:#ffffff;fill-opacity:1;stroke:#000000;stroke-width:2;stroke-miterlimit:4;stroke-opacity:1;stroke-dasharray:none;stroke-dashoffset:0"
         sodipodi:type="arc" />
      <text
         xml:space="preserve"
         style="font-size:28px;font-style:normal;font-weight:normal;line-height:125%;letter-spacing:0px;word-spacing:0px;fill:#000000;fill-opacity:1;stroke:none;font-family:Sans"
         x="50"
         y="835.36218"
         id="text5249"
         sodipodi:linespacing="125%"><tspan
           sodipodi:role="line"
           id="tspan5251"
           x="50"
           y="835.36218">11</tspan></text>
      <path
         sodipodi:type="arc"
         style="fill:#ffffff;fill-opacity:1;stroke:#000000;stroke-width:2;stroke-miterlimit:4;stroke-opacity:1;stroke-dasharray:none;stroke-dashoffset:0"
         id="path5255"
         sodipodi:cx="66"
         sodipodi:cy="63"
         sodipodi:rx="27"
         sodipodi:ry="27"
         d="M 93,63 C 93,77.911688 80.911688,90 66,90 51.088312,90 39,77.911688 39,63 39,48.088312 51.088312,36 66,36 80.911688,36 93,48.088312 93,63 z"
         transform="translate(148,762.36218)" />
      <text
         sodipodi:linespacing="125%"
         id="text5257"
         y="835.36218"
         x="206"
         style="font-size:28px;font-style:normal;font-weight:normal;line-height:125%;letter-spacing:0px;word-spacing:0px;fill:#000000;fill-opacity:1;stroke:none;font-family:Sans"
         xml:space="preserve"><tspan
           y="835.36218"
           x="206"
           id="tspan5259"
           sodipodi:role="line">8</tspan></text>
      <path
         sodipodi:type="arc"
         style="fill:#ffffff;fill-opacity:1;stroke:#000000;stroke-width:2;stroke-miterlimit:4;stroke-opacity:1;stroke-dasharray:none;stroke-dashoffset:0"
         id="path5271"
         sodipodi:cx="66"
         sodipodi:cy="63"
         sodipodi:rx="27"
         sodipodi:ry="27"
         d="M 93,63 C 93,77.911688 80.911688,90 66,90 51.088312,90 39,77.911688 39,63 39,48.088312 51.088312,36 66,36 80.911688,36 93,48.088312 93,63 z"
         transform="translate(0,880.36218)" />
      <text
         sodipodi:linespacing="125%"
         id="text5273"
         y="953.36218"
         x="58"
         style="font-size:28px;font-style:normal;font-weight:normal;line-height:125%;letter-spacing:0px;word-spacing:0px;fill:#000000;fill-opacity:1;stroke:none;font-family:Sans"
         xml:space="preserve"><tspan
           y="953.36218"
           x="58"
           id="tspan5275"
           sodipodi:role="line">2</tspan></text>
      <path
         transform="translate(148,880.36218)"
         d="M 93,63 C 93,77.911688 80.911688,90 66,90 51.088312,90 39,77.911688 39,63 39,48.088312 51.088312,36 66,36 80.911688,36 93,48.088312 93,63 z"
         sodipodi:ry="27"
         sodipodi:rx="27"
         sodipodi:cy="63"
         sodipodi:cx="66"
         id="path5279"
         style="fill:#ffffff;fill-opacity:1;stroke:#000000;stroke-width:2;stroke-miterlimit:4;stroke-opacity:1;stroke-dasharray:none;stroke-dashoffset:0"
         sodipodi:type="arc" />
      <text
         xml:space="preserve"
         style="font-size:28px;font-style:normal;font-weight:normal;line-height:125%;letter-spacing:0px;word-spacing:0px;fill:#000000;fill-opacity:1;stroke:none;font-family:Sans"
         x="206"
         y="953.36218"
         id="text5281"
         sodipodi:linespacing="125%"><tspan
           sodipodi:role="line"
           id="tspan5283"
           x="206"
           y="953.36218">9</tspan></text>
      <path
         sodipodi:type="arc"
         style="fill:#ffffff;fill-opacity:1;stroke:#000000;stroke-width:2;stroke-miterlimit:4;stroke-opacity:1;stroke-dasharray:none;stroke-dashoffset:0"
         id="path5287"
         sodipodi:cx="66"
         sodipodi:cy="63"
         sodipodi:rx="27"
         sodipodi:ry="27"
         d="M 93,63 C 93,77.911688 80.911688,90 66,90 51.088312,90 39,77.911688 39,63 39,48.088312 51.088312,36 66,36 80.911688,36 93,48.088312 93,63 z"
         transform="translate(284,880.36218)" />
      <text
         sodipodi:linespacing="125%"
         id="text5289"
         y="953.36218"
         x="334"
         style="font-size:28px;font-style:normal;font-weight:normal;line-height:125%;letter-spacing:0px;word-spacing:0px;fill:#000000;fill-opacity:1;stroke:none;font-family:Sans"
         xml:space="preserve"><tspan
           y="953.36218"
           x="334"
           id="tspan5291"
           sodipodi:role="line">10</tspan></text>
    </g>
  </g>
</svg>
