<?xml version="1.0" encoding="UTF-8" standalone="no"?>
<!-- Created with Inkscape (http://www.inkscape.org/) -->

<svg
   xmlns:dc="http://purl.org/dc/elements/1.1/"
   xmlns:cc="http://creativecommons.org/ns#"
   xmlns:rdf="http://www.w3.org/1999/02/22-rdf-syntax-ns#"
   xmlns:svg="http://www.w3.org/2000/svg"
   xmlns="http://www.w3.org/2000/svg"
   xmlns:sodipodi="http://sodipodi.sourceforge.net/DTD/sodipodi-0.dtd"
   xmlns:inkscape="http://www.inkscape.org/namespaces/inkscape"
   width="500"
   height="400"
   id="svg2"
   version="1.1"
   inkscape:version="0.48.4 r9939"
   sodipodi:docname="img11.svg">
  <defs
     id="defs4" />
  <sodipodi:namedview
     id="base"
     pagecolor="#ffffff"
     bordercolor="#666666"
     borderopacity="1.0"
     inkscape:pageopacity="0.0"
     inkscape:pageshadow="2"
     inkscape:zoom="1"
     inkscape:cx="222.33092"
     inkscape:cy="240.62999"
     inkscape:document-units="px"
     inkscape:current-layer="layer1"
     showgrid="false"
     showguides="true"
     inkscape:guide-bbox="true"
     inkscape:window-width="1221"
     inkscape:window-height="746"
     inkscape:window-x="-8"
     inkscape:window-y="1072"
     inkscape:window-maximized="1" />
  <metadata
     id="metadata7">
    <rdf:RDF>
      <cc:Work
         rdf:about="">
        <dc:format>image/svg+xml</dc:format>
        <dc:type
           rdf:resource="http://purl.org/dc/dcmitype/StillImage" />
        <dc:title></dc:title>
      </cc:Work>
    </rdf:RDF>
  </metadata>
  <g
     inkscape:label="Layer 1"
     inkscape:groupmode="layer"
     id="layer1"
     transform="translate(0,-652.36218)">
    <g
       id="g5212">
      <g
         id="g5200">
        <rect
           style="fill:none;stroke:#000000;stroke-width:2;stroke-miterlimit:4;stroke-opacity:1;stroke-dasharray:none;stroke-dashoffset:0"
           id="rect5196"
           width="321"
           height="321"
           x="95"
           y="695.36218" />
        <rect
           y="778.84204"
           x="178.47987"
           height="154.04025"
           width="154.04025"
           id="rect5198"
           style="fill:none;stroke:#000000;stroke-width:2;stroke-miterlimit:4;stroke-opacity:1;stroke-dasharray:none;stroke-dashoffset:0" />
      </g>
      <path
         transform="translate(0,652.36218)"
         inkscape:connector-curvature="0"
         id="path5204"
         d="m 97,44 83,83"
         style="fill:#ffffff;fill-opacity:1;stroke:#000000;stroke-width:2;stroke-miterlimit:4;stroke-opacity:1;stroke-dasharray:none;stroke-dashoffset:0" />
      <path
         transform="translate(0,652.36218)"
         inkscape:connector-curvature="0"
         id="path5206"
         d="m 414,43 -78.5,78.5"
         style="fill:#ffffff;fill-opacity:1;stroke:#000000;stroke-width:2;stroke-miterlimit:4;stroke-opacity:1;stroke-dasharray:none;stroke-dashoffset:0" />
      <path
         transform="translate(0,652.36218)"
         inkscape:connector-curvature="0"
         id="path5208"
         d="M 414,364 334,284"
         style="fill:#ffffff;fill-opacity:1;stroke:#000000;stroke-width:2;stroke-miterlimit:4;stroke-opacity:1;stroke-dasharray:none;stroke-dashoffset:0" />
      <path
         transform="translate(0,652.36218)"
         inkscape:connector-curvature="0"
         id="path5210"
         d="m 95,366 79.5,-79.5"
         style="fill:#ffffff;fill-opacity:1;stroke:#000000;stroke-width:2;stroke-miterlimit:4;stroke-opacity:1;stroke-dasharray:none;stroke-dashoffset:0" />
    </g>
    <path
       style="fill:#a0a0a0;stroke:none"
       d=""
       id="path3795"
       inkscape:connector-curvature="0"
       transform="translate(0,652.36218)" />
    <g
       id="g5191"
       transform="translate(-117,72)">
      <path
         sodipodi:type="arc"
         style="fill:#e6e6e6;stroke:#000000;stroke-width:2;stroke-miterlimit:4;stroke-opacity:1;stroke-dasharray:none;stroke-dashoffset:0"
         id="path5053"
         sodipodi:cx="198"
         sodipodi:cy="59"
         sodipodi:rx="24"
         sodipodi:ry="24"
         d="m 222,59 c 0,13.254834 -10.74517,24 -24,24 -13.25483,0 -24,-10.745166 -24,-24 0,-13.254834 10.74517,-24 24,-24 13.25483,0 24,10.745166 24,24 z"
         transform="translate(98,648.36218)" />
      <text
         xml:space="preserve"
         style="font-size:28px;font-style:normal;font-weight:normal;line-height:125%;letter-spacing:0px;word-spacing:0px;fill:#000000;fill-opacity:1;stroke:none;font-family:Sans"
         x="288"
         y="717.36218"
         id="text5106"
         sodipodi:linespacing="125%"><tspan
           sodipodi:role="line"
           id="tspan5108"
           x="288"
           y="717.36218">5</tspan></text>
    </g>
    <g
       id="g5161"
       transform="translate(133,-25)">
      <path
         sodipodi:type="arc"
         style="fill:#cccccc;stroke:#000000;stroke-width:2;stroke-miterlimit:4;stroke-opacity:1;stroke-dasharray:none;stroke-dashoffset:0"
         id="path5055"
         sodipodi:cx="198"
         sodipodi:cy="59"
         sodipodi:rx="24"
         sodipodi:ry="24"
         d="m 222,59 c 0,13.254834 -10.74517,24 -24,24 -13.25483,0 -24,-10.745166 -24,-24 0,-13.254834 10.74517,-24 24,-24 13.25483,0 24,10.745166 24,24 z"
         transform="translate(0,744.36218)" />
      <text
         xml:space="preserve"
         style="font-size:28px;font-style:normal;font-weight:normal;line-height:125%;letter-spacing:0px;word-spacing:0px;fill:#000000;fill-opacity:1;stroke:none;font-family:Sans"
         x="190"
         y="813.36218"
         id="text5120"
         sodipodi:linespacing="125%"><tspan
           sodipodi:role="line"
           id="tspan5122"
           x="190"
           y="813.36218">6</tspan></text>
    </g>
    <g
       id="g5186"
       transform="translate(119,-110)">
      <path
         transform="translate(98,744.36218)"
         d="m 222,59 c 0,13.254834 -10.74517,24 -24,24 -13.25483,0 -24,-10.745166 -24,-24 0,-13.254834 10.74517,-24 24,-24 13.25483,0 24,10.745166 24,24 z"
         sodipodi:ry="24"
         sodipodi:rx="24"
         sodipodi:cy="59"
         sodipodi:cx="198"
         id="path5057"
         style="fill:#b3b3b3;stroke:#000000;stroke-width:2;stroke-miterlimit:4;stroke-opacity:1;stroke-dasharray:none;stroke-dashoffset:0"
         sodipodi:type="arc" />
      <text
         sodipodi:linespacing="125%"
         id="text5124"
         y="813.36218"
         x="288"
         style="font-size:28px;font-style:normal;font-weight:normal;line-height:125%;letter-spacing:0px;word-spacing:0px;fill:#000000;fill-opacity:1;stroke:none;font-family:Sans"
         xml:space="preserve"><tspan
           y="813.36218"
           x="288"
           id="tspan5126"
           sodipodi:role="line">2</tspan></text>
    </g>
    <g
       id="g5166"
       transform="translate(-20,32)">
      <path
         sodipodi:type="arc"
         style="fill:#808080;stroke:#000000;stroke-width:2;stroke-miterlimit:4;stroke-opacity:1;stroke-dasharray:none;stroke-dashoffset:0"
         id="path5059"
         sodipodi:cx="198"
         sodipodi:cy="59"
         sodipodi:rx="24"
         sodipodi:ry="24"
         d="m 222,59 c 0,13.254834 -10.74517,24 -24,24 -13.25483,0 -24,-10.745166 -24,-24 0,-13.254834 10.74517,-24 24,-24 13.25483,0 24,10.745166 24,24 z"
         transform="translate(0,840.36218)" />
      <text
         sodipodi:linespacing="125%"
         id="text5128"
         y="909.36218"
         x="190"
         style="font-size:28px;font-style:normal;font-weight:normal;line-height:125%;letter-spacing:0px;word-spacing:0px;fill:#ffffff;fill-opacity:1;stroke:none;font-family:Sans"
         xml:space="preserve"><tspan
           y="909.36218"
           x="190"
           id="tspan5130"
           sodipodi:role="line">8</tspan></text>
    </g>
    <g
       id="g5181"
       transform="translate(-200,117)">
      <path
         transform="translate(98,840.36218)"
         d="m 222,59 c 0,13.254834 -10.74517,24 -24,24 -13.25483,0 -24,-10.745166 -24,-24 0,-13.254834 10.74517,-24 24,-24 13.25483,0 24,10.745166 24,24 z"
         sodipodi:ry="24"
         sodipodi:rx="24"
         sodipodi:cy="59"
         sodipodi:cx="198"
         id="path5061"
         style="fill:#4d4d4d;stroke:#000000;stroke-width:2;stroke-miterlimit:4;stroke-opacity:1;stroke-dasharray:none;stroke-dashoffset:0"
         sodipodi:type="arc" />
      <text
         xml:space="preserve"
         style="font-size:28px;font-style:normal;font-weight:normal;line-height:125%;letter-spacing:0px;word-spacing:0px;fill:#ffffff;fill-opacity:1;stroke:none;font-family:Sans"
         x="288"
         y="909.36218"
         id="text5132"
         sodipodi:linespacing="125%"><tspan
           sodipodi:role="line"
           id="tspan5134"
           x="288"
           y="909.36218">4</tspan></text>
    </g>
    <g
       id="g5171"
       transform="translate(217,19)">
      <path
         transform="translate(0,936.36218)"
         d="m 222,59 c 0,13.254834 -10.74517,24 -24,24 -13.25483,0 -24,-10.745166 -24,-24 0,-13.254834 10.74517,-24 24,-24 13.25483,0 24,10.745166 24,24 z"
         sodipodi:ry="24"
         sodipodi:rx="24"
         sodipodi:cy="59"
         sodipodi:cx="198"
         id="path5063"
         style="fill:#333333;stroke:#000000;stroke-width:2;stroke-miterlimit:4;stroke-opacity:1;stroke-dasharray:none;stroke-dashoffset:0"
         sodipodi:type="arc" />
      <text
         xml:space="preserve"
         style="font-size:28px;font-style:normal;font-weight:normal;line-height:125%;letter-spacing:0px;word-spacing:0px;fill:#ffffff;fill-opacity:1;stroke:none;font-family:Sans"
         x="190"
         y="1005.3622"
         id="text5136"
         sodipodi:linespacing="125%"><tspan
           sodipodi:role="line"
           id="tspan5138"
           x="190"
           y="1005.3622">3</tspan></text>
    </g>
    <g
       id="g5176"
       transform="translate(36,-64)">
      <path
         sodipodi:type="arc"
         style="fill:#000000;stroke:#000000;stroke-width:2;stroke-miterlimit:4;stroke-opacity:1;stroke-dasharray:none;stroke-dashoffset:0"
         id="path5065"
         sodipodi:cx="198"
         sodipodi:cy="59"
         sodipodi:rx="24"
         sodipodi:ry="24"
         d="m 222,59 c 0,13.254834 -10.74517,24 -24,24 -13.25483,0 -24,-10.745166 -24,-24 0,-13.254834 10.74517,-24 24,-24 13.25483,0 24,10.745166 24,24 z"
         transform="translate(98,936.36218)" />
      <text
         sodipodi:linespacing="125%"
         id="text5140"
         y="1005.3622"
         x="288"
         style="font-size:28px;font-style:normal;font-weight:normal;line-height:125%;letter-spacing:0px;word-spacing:0px;fill:#ffffff;fill-opacity:1;stroke:none;font-family:Sans"
         xml:space="preserve"><tspan
           y="1005.3622"
           x="288"
           id="tspan5142"
           sodipodi:role="line">7</tspan></text>
    </g>
    <g
       id="g5156"
       transform="translate(-102,-13)">
      <path
         transform="translate(0,648.36218)"
         d="m 222,59 c 0,13.254834 -10.74517,24 -24,24 -13.25483,0 -24,-10.745166 -24,-24 0,-13.254834 10.74517,-24 24,-24 13.25483,0 24,10.745166 24,24 z"
         sodipodi:ry="24"
         sodipodi:rx="24"
         sodipodi:cy="59"
         sodipodi:cx="198"
         id="path5051"
         style="fill:#ffffff;stroke:#000000;stroke-width:2;stroke-miterlimit:4;stroke-opacity:1;stroke-dasharray:none;stroke-dashoffset:0"
         sodipodi:type="arc" />
      <text
         sodipodi:linespacing="125%"
         id="text5102"
         y="717.36218"
         x="190"
         style="font-size:28px;font-style:normal;font-weight:normal;line-height:125%;letter-spacing:0px;word-spacing:0px;fill:#000000;fill-opacity:1;stroke:none;font-family:Sans"
         xml:space="preserve"><tspan
           y="717.36218"
           x="190"
           id="tspan5104"
           sodipodi:role="line">1</tspan></text>
    </g>
  </g>
</svg>
